<svg xmlns="http://www.w3.org/2000/svg" viewBox="0 0 512 512" role="img" aria-labelledby="title desc">
  <title id="title">DeviceStatusBeacon icon</title>
  <desc id="desc">Beacon mast with controlled signal arcs and an online status dot.</desc>
  <style>
    .blue { fill: #0969DA; stroke: #0969DA; }
    .green { fill: #2DA44E; }
    .arc { fill: none; stroke-linecap: round; stroke-linejoin: round; }
    .mast { fill: none; stroke-linecap: round; stroke-linejoin: round; }
  </style>
  <path d="M 92.40 249.44 L 92.10 243.84 L 92.00 238.24 L 92.09 232.63 L 92.37 227.04 L 92.84 221.45 L 93.50 215.88 L 94.35 210.34 L 95.39 204.84 L 96.62 199.37 L 98.03 193.94 L 99.63 188.57 L 101.41 183.26 L 103.37 178.00 L 105.51 172.82 L 107.82 167.72 L 110.31 162.70 L 112.97 157.76 L 115.79 152.92 L 118.78 148.18 L 121.93 143.54 L 125.24 139.02 L 128.70 134.61 L 132.31 130.32 L 136.06 126.15 L 139.95 122.12 L 143.98 118.22 L 148.14 114.46 L 152.42 110.85 L 156.83 107.38 L 161.35 104.07 L 165.98 100.91 L 170.72 97.92 L 175.55 95.09 L 180.48 92.42 L 185.50 89.92 L 190.61 87.60 L 195.78 85.46 L 201.03 83.49 L 206.34 81.70 L 211.71 80.09 L 217.14 78.67 L 222.60 77.44 L 228.11 76.39 L 233.65 75.53 L 239.21 74.86 L 244.80 74.38 L 250.40 74.10 L 256.00 74.00 L 261.60 74.10 L 267.20 74.38 L 272.79 74.86 L 278.35 75.53 L 283.89 76.39 L 289.40 77.44 L 294.86 78.67 L 300.29 80.09 L 305.66 81.70 L 310.97 83.49 L 316.22 85.46 L 321.39 87.60 L 326.50 89.92 L 331.52 92.42 L 336.45 95.09 L 341.28 97.92 L 346.02 100.91 L 350.65 104.07 L 355.17 107.38 L 359.58 110.85 L 363.86 114.46 L 368.02 118.22 L 372.05 122.12 L 375.94 126.15 L 379.69 130.32 L 383.30 134.61 L 386.76 139.02 L 390.07 143.54 L 393.22 148.18 L 396.21 152.92 L 399.03 157.76 L 401.69 162.70 L 404.18 167.72 L 406.49 172.82 L 408.63 178.00 L 410.59 183.26 L 412.37 188.57 L 413.97 193.94 L 415.38 199.37 L 416.61 204.84 L 417.65 210.34 L 418.50 215.88 L 419.16 221.45 L 419.63 227.04 L 419.91 232.63 L 420.00 238.24 L 419.90 243.84 L 419.60 249.44" class="arc" stroke="#0969DA" stroke-width="20" />
  <path d="M 146.60 226.50 L 147.00 223.17 L 147.51 219.84 L 148.11 216.54 L 148.82 213.26 L 149.62 209.99 L 150.53 206.76 L 151.53 203.55 L 152.63 200.38 L 153.83 197.24 L 155.12 194.14 L 156.51 191.08 L 157.99 188.06 L 159.56 185.09 L 161.22 182.17 L 162.97 179.30 L 164.81 176.49 L 166.73 173.73 L 168.73 171.04 L 170.82 168.40 L 172.98 165.83 L 175.22 163.33 L 177.54 160.90 L 179.93 158.54 L 182.40 156.25 L 184.93 154.04 L 187.52 151.91 L 190.18 149.86 L 192.91 147.89 L 195.69 146.01 L 198.53 144.21 L 201.42 142.50 L 204.36 140.88 L 207.35 139.34 L 210.38 137.90 L 213.46 136.56 L 216.58 135.31 L 219.73 134.15 L 222.92 133.09 L 226.14 132.13 L 229.39 131.27 L 232.66 130.50 L 235.95 129.84 L 239.27 129.28 L 242.59 128.82 L 245.93 128.46 L 249.28 128.21 L 252.64 128.05 L 256.00 128.00 L 259.36 128.05 L 262.72 128.21 L 266.07 128.46 L 269.41 128.82 L 272.73 129.28 L 276.05 129.84 L 279.34 130.50 L 282.61 131.27 L 285.86 132.13 L 289.08 133.09 L 292.27 134.15 L 295.42 135.31 L 298.54 136.56 L 301.62 137.90 L 304.65 139.34 L 307.64 140.88 L 310.58 142.50 L 313.47 144.21 L 316.31 146.01 L 319.09 147.89 L 321.82 149.86 L 324.48 151.91 L 327.07 154.04 L 329.60 156.25 L 332.07 158.54 L 334.46 160.90 L 336.78 163.33 L 339.02 165.83 L 341.18 168.40 L 343.27 171.04 L 345.27 173.73 L 347.19 176.49 L 349.03 179.30 L 350.78 182.17 L 352.44 185.09 L 354.01 188.06 L 355.49 191.08 L 356.88 194.14 L 358.17 197.24 L 359.37 200.38 L 360.47 203.55 L 361.47 206.76 L 362.38 209.99 L 363.18 213.26 L 363.89 216.54 L 364.49 219.84 L 365.00 223.17 L 365.40 226.50" class="arc" stroke="#0969DA" stroke-width="16" />
  <path d="M 326.00 238.00 A 70.00 70.00 0 1 1 186.00 238.00 A 70.00 70.00 0 1 1 326.00 238.00 M 296.00 238.00 A 40.00 40.00 0 1 0 216.00 238.00 A 40.00 40.00 0 1 0 296.00 238.00" fill="#0969DA" fill-rule="evenodd" />
  <path d="M 234.00 308.00 L 216.00 412.00" class="mast" stroke="#0969DA" stroke-width="26.00" />
  <path d="M 278.00 308.00 L 296.00 412.00" class="mast" stroke="#0969DA" stroke-width="26.00" />
  <path d="M 170.00 414.00 L 342.00 414.00" class="mast" stroke="#0969DA" stroke-width="24.00" />
  <circle cx="320.00" cy="384.00" r="22.00" fill="#2DA44E" />
</svg>