<svg xmlns="http://www.w3.org/2000/svg" viewBox="0 0 512 512" role="img" aria-labelledby="title desc">
  <title id="title">DeviceStatusBeacon</title>
  <desc id="desc">Signal beacon with an online status indicator.</desc>
  <style>
    .arc { fill: none; stroke-linecap: round; stroke-linejoin: round; }
    .mast { fill: none; stroke-linecap: round; stroke-linejoin: round; }
  </style>
  <path d="M 105.88 325.16 L 103.84 322.86 L 101.83 320.52 L 99.85 318.15 L 97.91 315.75 L 96.01 313.32 L 94.15 310.86 L 92.32 308.38 L 90.53 305.86 L 88.78 303.32 L 87.07 300.76 L 85.40 298.16 L 83.77 295.54 L 82.17 292.90 L 80.62 290.24 L 79.11 287.55 L 77.64 284.83 L 76.22 282.10 L 74.83 279.34 L 73.49 276.57 L 72.19 273.77 L 70.93 270.95 L 69.72 268.12 L 68.54 265.26 L 67.42 262.39 L 66.33 259.50 L 65.29 256.60 L 64.30 253.68 L 63.35 250.74 L 62.44 247.79 L 61.58 244.83 L 60.77 241.86 L 60.00 238.87 L 59.28 235.87 L 58.60 232.86 L 57.97 229.84 L 57.38 226.81 L 56.84 223.77 L 56.35 220.73 L 55.90 217.68 L 55.51 214.62 L 55.15 211.55 L 54.85 208.48 L 54.59 205.41 L 54.38 202.33 L 54.21 199.25 L 54.09 196.17 L 54.02 193.08 L 54.00 190.00 L 54.02 186.92 L 54.09 183.83 L 54.21 180.75 L 54.38 177.67 L 54.59 174.59 L 54.85 171.52 L 55.15 168.45 L 55.51 165.38 L 55.90 162.32 L 56.35 159.27 L 56.84 156.23 L 57.38 153.19 L 57.97 150.16 L 58.60 147.14 L 59.28 144.13 L 60.00 141.13 L 60.77 138.14 L 61.58 135.17 L 62.44 132.21 L 63.35 129.26 L 64.30 126.32 L 65.29 123.40 L 66.33 120.50 L 67.42 117.61 L 68.54 114.74 L 69.72 111.88 L 70.93 109.05 L 72.19 106.23 L 73.49 103.43 L 74.83 100.66 L 76.22 97.90 L 77.64 95.17 L 79.11 92.45 L 80.62 89.76 L 82.17 87.10 L 83.77 84.46 L 85.40 81.84 L 87.07 79.24 L 88.78 76.68 L 90.53 74.14 L 92.32 71.62 L 94.15 69.14 L 96.01 66.68 L 97.91 64.25 L 99.85 61.85 L 101.83 59.48 L 103.84 57.14 L 105.88 54.84" class="arc" stroke="#2F81F7" stroke-width="28.00" />
  <path d="M 406.12 54.84 L 408.16 57.14 L 410.17 59.48 L 412.15 61.85 L 414.09 64.25 L 415.99 66.68 L 417.85 69.14 L 419.68 71.62 L 421.47 74.14 L 423.22 76.68 L 424.93 79.24 L 426.60 81.84 L 428.23 84.46 L 429.83 87.10 L 431.38 89.76 L 432.89 92.45 L 434.36 95.17 L 435.78 97.90 L 437.17 100.66 L 438.51 103.43 L 439.81 106.23 L 441.07 109.05 L 442.28 111.88 L 443.46 114.74 L 444.58 117.61 L 445.67 120.50 L 446.71 123.40 L 447.70 126.32 L 448.65 129.26 L 449.56 132.21 L 450.42 135.17 L 451.23 138.14 L 452.00 141.13 L 452.72 144.13 L 453.40 147.14 L 454.03 150.16 L 454.62 153.19 L 455.16 156.23 L 455.65 159.27 L 456.10 162.32 L 456.49 165.38 L 456.85 168.45 L 457.15 171.52 L 457.41 174.59 L 457.62 177.67 L 457.79 180.75 L 457.91 183.83 L 457.98 186.92 L 458.00 190.00 L 457.98 193.08 L 457.91 196.17 L 457.79 199.25 L 457.62 202.33 L 457.41 205.41 L 457.15 208.48 L 456.85 211.55 L 456.49 214.62 L 456.10 217.68 L 455.65 220.73 L 455.16 223.77 L 454.62 226.81 L 454.03 229.84 L 453.40 232.86 L 452.72 235.87 L 452.00 238.87 L 451.23 241.86 L 450.42 244.83 L 449.56 247.79 L 448.65 250.74 L 447.70 253.68 L 446.71 256.60 L 445.67 259.50 L 444.58 262.39 L 443.46 265.26 L 442.28 268.12 L 441.07 270.95 L 439.81 273.77 L 438.51 276.57 L 437.17 279.34 L 435.78 282.10 L 434.36 284.83 L 432.89 287.55 L 431.38 290.24 L 429.83 292.90 L 428.23 295.54 L 426.60 298.16 L 424.93 300.76 L 423.22 303.32 L 421.47 305.86 L 419.68 308.38 L 417.85 310.86 L 415.99 313.32 L 414.09 315.75 L 412.15 318.15 L 410.17 320.52 L 408.16 322.86 L 406.12 325.16" class="arc" stroke="#2F81F7" stroke-width="28.00" />
  <path d="M 145.68 276.19 L 144.50 274.66 L 143.34 273.11 L 142.20 271.55 L 141.09 269.97 L 139.99 268.37 L 138.92 266.76 L 137.87 265.14 L 136.84 263.50 L 135.84 261.84 L 134.86 260.18 L 133.90 258.50 L 132.97 256.80 L 132.05 255.10 L 131.17 253.38 L 130.30 251.65 L 129.46 249.90 L 128.65 248.15 L 127.86 246.38 L 127.09 244.61 L 126.35 242.82 L 125.63 241.03 L 124.94 239.22 L 124.27 237.40 L 123.63 235.58 L 123.01 233.75 L 122.42 231.90 L 121.85 230.05 L 121.31 228.20 L 120.80 226.33 L 120.31 224.46 L 119.84 222.58 L 119.41 220.70 L 119.00 218.81 L 118.61 216.91 L 118.25 215.01 L 117.92 213.11 L 117.61 211.20 L 117.33 209.28 L 117.08 207.36 L 116.85 205.44 L 116.65 203.52 L 116.48 201.59 L 116.33 199.66 L 116.21 197.73 L 116.12 195.80 L 116.05 193.87 L 116.01 191.93 L 116.00 190.00 L 116.01 188.07 L 116.05 186.13 L 116.12 184.20 L 116.21 182.27 L 116.33 180.34 L 116.48 178.41 L 116.65 176.48 L 116.85 174.56 L 117.08 172.64 L 117.33 170.72 L 117.61 168.80 L 117.92 166.89 L 118.25 164.99 L 118.61 163.09 L 119.00 161.19 L 119.41 159.30 L 119.84 157.42 L 120.31 155.54 L 120.80 153.67 L 121.31 151.80 L 121.85 149.95 L 122.42 148.10 L 123.01 146.25 L 123.63 144.42 L 124.27 142.60 L 124.94 140.78 L 125.63 138.97 L 126.35 137.18 L 127.09 135.39 L 127.86 133.62 L 128.65 131.85 L 129.46 130.10 L 130.30 128.35 L 131.17 126.62 L 132.05 124.90 L 132.97 123.20 L 133.90 121.50 L 134.86 119.82 L 135.84 118.16 L 136.84 116.50 L 137.87 114.86 L 138.92 113.24 L 139.99 111.63 L 141.09 110.03 L 142.20 108.45 L 143.34 106.89 L 144.50 105.34 L 145.68 103.81" class="arc" stroke="#2F81F7" stroke-width="22.00" />
  <path d="M 366.32 103.81 L 367.50 105.34 L 368.66 106.89 L 369.80 108.45 L 370.91 110.03 L 372.01 111.63 L 373.08 113.24 L 374.13 114.86 L 375.16 116.50 L 376.16 118.16 L 377.14 119.82 L 378.10 121.50 L 379.03 123.20 L 379.95 124.90 L 380.83 126.62 L 381.70 128.35 L 382.54 130.10 L 383.35 131.85 L 384.14 133.62 L 384.91 135.39 L 385.65 137.18 L 386.37 138.97 L 387.06 140.78 L 387.73 142.60 L 388.37 144.42 L 388.99 146.25 L 389.58 148.10 L 390.15 149.95 L 390.69 151.80 L 391.20 153.67 L 391.69 155.54 L 392.16 157.42 L 392.59 159.30 L 393.00 161.19 L 393.39 163.09 L 393.75 164.99 L 394.08 166.89 L 394.39 168.80 L 394.67 170.72 L 394.92 172.64 L 395.15 174.56 L 395.35 176.48 L 395.52 178.41 L 395.67 180.34 L 395.79 182.27 L 395.88 184.20 L 395.95 186.13 L 395.99 188.07 L 396.00 190.00 L 395.99 191.93 L 395.95 193.87 L 395.88 195.80 L 395.79 197.73 L 395.67 199.66 L 395.52 201.59 L 395.35 203.52 L 395.15 205.44 L 394.92 207.36 L 394.67 209.28 L 394.39 211.20 L 394.08 213.11 L 393.75 215.01 L 393.39 216.91 L 393.00 218.81 L 392.59 220.70 L 392.16 222.58 L 391.69 224.46 L 391.20 226.33 L 390.69 228.20 L 390.15 230.05 L 389.58 231.90 L 388.99 233.75 L 388.37 235.58 L 387.73 237.40 L 387.06 239.22 L 386.37 241.03 L 385.65 242.82 L 384.91 244.61 L 384.14 246.38 L 383.35 248.15 L 382.54 249.90 L 381.70 251.65 L 380.83 253.38 L 379.95 255.10 L 379.03 256.80 L 378.10 258.50 L 377.14 260.18 L 376.16 261.84 L 375.16 263.50 L 374.13 265.14 L 373.08 266.76 L 372.01 268.37 L 370.91 269.97 L 369.80 271.55 L 368.66 273.11 L 367.50 274.66 L 366.32 276.19" class="arc" stroke="#2F81F7" stroke-width="22.00" />
  <path d="M 342.00 190.00 A 86.00 86.00 0 1 1 170.00 190.00 A 86.00 86.00 0 1 1 342.00 190.00 M 301.00 190.00 A 45.00 45.00 0 1 0 211.00 190.00 A 45.00 45.00 0 1 0 301.00 190.00" fill="#2F81F7" fill-rule="evenodd" />
  <path d="M 224.00 258.00 L 196.00 436.00" class="mast" stroke="#2F81F7" stroke-width="38.00" />
  <path d="M 288.00 258.00 L 316.00 436.00" class="mast" stroke="#2F81F7" stroke-width="38.00" />
  <path d="M 138.00 454.00 L 374.00 454.00" class="mast" stroke="#2F81F7" stroke-width="36.00" />
  <circle cx="340.00" cy="410.00" r="34.00" fill="#2DA44E" />
</svg>